<?xml version="1.0" encoding="UTF-8" standalone="no"?>
<!DOCTYPE svg PUBLIC "-//W3C//DTD SVG 1.1//EN" "http://www.w3.org/Graphics/SVG/1.1/DTD/svg11.dtd">
<!-- Generated by graphviz version 2.40.1 (20161225.0304)
 -->
<!-- Title: finite_state_machine Pages: 1 -->
<svg width="850pt" height="249pt" viewBox="0.00 0.00 849.72 249.32" xmlns="http://www.w3.org/2000/svg" xmlns:xlink="http://www.w3.org/1999/xlink">
<g id="graph0" class="graph" transform="scale(1 1) rotate(0) translate(4 245.3186)">
<title>finite_state_machine</title>
<polygon fill="#ffffff" stroke="transparent" points="-4,4 -4,-245.3186 845.7169,-245.3186 845.7169,4 -4,4"/>
<!-- Build() -->
<g id="node1" class="node">
<title>Build()</title>
<ellipse fill="none" stroke="#000000" cx="798.7863" cy="-151.5623" rx="38.8678" ry="38.8678"/>
<ellipse fill="none" stroke="#000000" cx="798.7863" cy="-151.5623" rx="42.8613" ry="42.8613"/>
<text text-anchor="middle" x="798.7863" y="-147.3623" font-family="Times,serif" font-size="14.00" fill="#000000">Build()</text>
</g>
<!-- start -->
<g id="node2" class="node">
<title>start</title>
<ellipse fill="#000000" stroke="#000000" cx="1.8" cy="-148.5623" rx="1.8" ry="1.8"/>
</g>
<!-- Create() -->
<g id="node3" class="node">
<title>Create()</title>
<ellipse fill="none" stroke="#000000" cx="82.2649" cy="-148.5623" rx="42.8305" ry="42.8305"/>
<text text-anchor="middle" x="82.2649" y="-144.3623" font-family="Times,serif" font-size="14.00" fill="#000000">Create()</text>
</g>
<!-- start&#45;&gt;Create() -->
<g id="edge1" class="edge">
<title>start-&gt;Create()</title>
<path fill="none" stroke="#000000" d="M3.789,-148.5623C7.9108,-148.5623 17.9738,-148.5623 29.5694,-148.5623"/>
<polygon fill="#000000" stroke="#000000" points="29.5734,-152.0624 39.5733,-148.5623 29.5733,-145.0624 29.5734,-152.0624"/>
</g>
<!-- Select() -->
<g id="node4" class="node">
<title>Select()</title>
<ellipse fill="none" stroke="#000000" cx="201.9917" cy="-148.5623" rx="41.1239" ry="41.1239"/>
<text text-anchor="middle" x="201.9917" y="-144.3623" font-family="Times,serif" font-size="14.00" fill="#000000">Select()</text>
</g>
<!-- Create()&#45;&gt;Select() -->
<g id="edge2" class="edge">
<title>Create()-&gt;Select()</title>
<path fill="none" stroke="#000000" d="M125.1509,-148.5623C133.3558,-148.5623 142.0245,-148.5623 150.4675,-148.5623"/>
<polygon fill="#000000" stroke="#000000" points="150.6079,-152.0624 160.6078,-148.5623 150.6078,-145.0624 150.6079,-152.0624"/>
</g>
<!-- From() -->
<g id="node5" class="node">
<title>From()</title>
<ellipse fill="none" stroke="#000000" cx="317.4434" cy="-148.5623" rx="38.2799" ry="38.2799"/>
<text text-anchor="middle" x="317.4434" y="-144.3623" font-family="Times,serif" font-size="14.00" fill="#000000">From()</text>
</g>
<!-- Select()&#45;&gt;From() -->
<g id="edge3" class="edge">
<title>Select()-&gt;From()</title>
<path fill="none" stroke="#000000" d="M243.3464,-148.5623C251.5342,-148.5623 260.2012,-148.5623 268.6102,-148.5623"/>
<polygon fill="#000000" stroke="#000000" points="268.6899,-152.0624 278.6898,-148.5623 268.6898,-145.0624 268.6899,-152.0624"/>
</g>
<!-- From()&#45;&gt;Build() -->
<g id="edge4" class="edge">
<title>From()-&gt;Build()</title>
<path fill="none" stroke="#000000" d="M349.4432,-169.8598C383.7462,-191.3054 440.628,-222.9646 494.9578,-235.5623 587.3122,-256.977 693.8017,-210.9452 753.0063,-178.9416"/>
<polygon fill="#000000" stroke="#000000" points="755.0213,-181.8276 762.0929,-173.9381 751.6449,-175.6958 755.0213,-181.8276"/>
</g>
<!-- Where() -->
<g id="node6" class="node">
<title>Where()</title>
<ellipse fill="none" stroke="#000000" cx="538.1558" cy="-183.5623" rx="43.3969" ry="43.3969"/>
<text text-anchor="middle" x="538.1558" y="-179.3623" font-family="Times,serif" font-size="14.00" fill="#000000">Where()</text>
</g>
<!-- From()&#45;&gt;Where() -->
<g id="edge5" class="edge">
<title>From()-&gt;Where()</title>
<path fill="none" stroke="#000000" d="M355.3852,-154.579C391.214,-160.2606 445.2754,-168.8336 485.3162,-175.1831"/>
<polygon fill="#000000" stroke="#000000" points="485.0079,-178.6779 495.4327,-176.7874 486.1043,-171.7643 485.0079,-178.6779"/>
</g>
<!-- Join() -->
<g id="node7" class="node">
<title>Join()</title>
<ellipse fill="none" stroke="#000000" cx="425.3955" cy="-33.5623" rx="33.6247" ry="33.6247"/>
<text text-anchor="middle" x="425.3955" y="-29.3623" font-family="Times,serif" font-size="14.00" fill="#000000">Join()</text>
</g>
<!-- From()&#45;&gt;Join() -->
<g id="edge6" class="edge">
<title>From()-&gt;Join()</title>
<path fill="none" stroke="#000000" d="M343.8515,-120.4301C359.3326,-103.9383 378.9497,-83.0405 395.0631,-65.8751"/>
<polygon fill="#000000" stroke="#000000" points="397.9003,-67.9666 402.1926,-58.2801 392.7966,-63.1757 397.9003,-67.9666"/>
</g>
<!-- OrderBy() -->
<g id="node8" class="node">
<title>OrderBy()</title>
<ellipse fill="none" stroke="#000000" cx="668.6047" cy="-112.5623" rx="51.003" ry="51.003"/>
<text text-anchor="middle" x="668.6047" y="-108.3623" font-family="Times,serif" font-size="14.00" fill="#000000">OrderBy()</text>
</g>
<!-- From()&#45;&gt;OrderBy() -->
<g id="edge7" class="edge">
<title>From()-&gt;OrderBy()</title>
<path fill="none" stroke="#000000" d="M355.6923,-144.6411C416.1781,-138.4403 534.4719,-126.3132 607.0229,-118.8755"/>
<polygon fill="#000000" stroke="#000000" points="607.792,-122.3151 617.3829,-117.8134 607.078,-115.3516 607.792,-122.3151"/>
</g>
<!-- Where()&#45;&gt;Build() -->
<g id="edge9" class="edge">
<title>Where()-&gt;Build()</title>
<path fill="none" stroke="#000000" d="M581.3753,-183.3643C618.3579,-182.6193 672.9027,-180.1515 719.8557,-172.5623 728.902,-171.1001 738.411,-169.0379 747.5726,-166.7717"/>
<polygon fill="#000000" stroke="#000000" points="748.5309,-170.1392 757.3392,-164.2515 746.7818,-163.3612 748.5309,-170.1392"/>
</g>
<!-- Where()&#45;&gt;OrderBy() -->
<g id="edge10" class="edge">
<title>Where()-&gt;OrderBy()</title>
<path fill="none" stroke="#000000" d="M576.2377,-162.8353C588.2138,-156.317 601.6757,-148.9901 614.5406,-141.988"/>
<polygon fill="#000000" stroke="#000000" points="616.216,-145.061 623.3261,-137.2063 612.8696,-138.9127 616.216,-145.061"/>
</g>
<!-- Join()&#45;&gt;Build() -->
<g id="edge11" class="edge">
<title>Join()-&gt;Build()</title>
<path fill="none" stroke="#000000" d="M458.6148,-27.4388C515.6948,-18.6403 634.4785,-7.9972 719.8557,-52.5623 742.0925,-64.1694 760.1882,-85.0998 773.4164,-104.7352"/>
<polygon fill="#000000" stroke="#000000" points="770.6025,-106.8298 778.9668,-113.3329 776.4835,-103.0331 770.6025,-106.8298"/>
</g>
<!-- Join()&#45;&gt;Where() -->
<g id="edge8" class="edge">
<title>Join()-&gt;Where()</title>
<path fill="none" stroke="#000000" d="M445.8156,-60.7262C462.595,-83.0472 486.6677,-115.07 506.0273,-140.8231"/>
<polygon fill="#000000" stroke="#000000" points="503.3254,-143.0537 512.132,-148.944 508.9208,-138.8475 503.3254,-143.0537"/>
</g>
<!-- Join()&#45;&gt;Join() -->
<g id="edge12" class="edge">
<title>Join()-&gt;Join()</title>
<path fill="none" stroke="#000000" d="M405.9136,-61.1474C403.7883,-73.944 410.2822,-85.1246 425.3955,-85.1246 436.2582,-85.1246 442.6681,-79.3487 444.6253,-71.3482"/>
<polygon fill="#000000" stroke="#000000" points="448.1292,-71.2308 444.8775,-61.1474 441.1313,-71.0578 448.1292,-71.2308"/>
</g>
<!-- OrderBy()&#45;&gt;Build() -->
<g id="edge13" class="edge">
<title>OrderBy()-&gt;Build()</title>
<path fill="none" stroke="#000000" d="M717.8208,-127.3065C727.6491,-130.2509 737.9916,-133.3493 747.8757,-136.3104"/>
<polygon fill="#000000" stroke="#000000" points="746.987,-139.6978 757.5709,-139.2149 748.996,-132.9923 746.987,-139.6978"/>
</g>
</g>
</svg>